<svg id="SvgjsSvg1001" width="550" height="550" xmlns="http://www.w3.org/2000/svg" version="1.1" xmlns:xlink="http://www.w3.org/1999/xlink" xmlns:svgjs="http://svgjs.com/svgjs"><defs id="SvgjsDefs1002"></defs><g id="SvgjsG1008"><svg xmlns="http://www.w3.org/2000/svg" enable-background="new 0 0 2500 2500" viewBox="0 0 2500 2500" width="550" height="550"><path fill="#ffffff" d="M1791.07,1394.91l-160.44-105.97c8.58-16.76,18.47-33.24,5.63-72.66c-2.11-6.54-13.69-32.64-12.41-38.98
								c1.04-5.55,3.91-10.85,8.3-14.88c11.85-10.77,30.44-9.06,40.02,3.83l29.17,47l57.06-109.29l0.04-0.04
								c3.75-7.18,11.49-11.65,19.55-10.77c14.24,1.48,21.98,15.48,17.8,27.21l8.1-15.48l0.04-0.08
								c3.99-7.58,12.33-12.17,20.87-10.69c14.64,2.43,21.35,17.76,15.12,29.65l-9.62,18.07c5.27-9.86,17.12-12.85,27.49-8.42
								c18.67,8.06,7.7,28.69,2.51,38.66c5.83-11.13,28.25-18.87,38.86,1.6C1903.66,1182.36,1795.65,1386.21,1791.07,1394.91z" class="colorfff svgShape"></path><path fill="#030047" d="M1791.06,1398.04c-0.61,0-1.21-0.18-1.73-0.52l-160.44-105.97c-1.34-0.88-1.79-2.62-1.07-4.05l1.05-2.05
								c8.02-15.55,16.31-31.63,4.39-68.21c-0.54-1.66-1.69-4.59-3.08-8.13c-5.77-14.68-10.47-27.26-9.42-32.44
								c1.17-6.28,4.46-12.18,9.25-16.57c6.34-5.77,14.86-8.59,23.36-7.76c8.47,0.82,16.23,5.21,21.3,12.03l26.41,42.55
								l54.51-104.41c0.05-0.1,0.11-0.2,0.18-0.3c4.46-8.28,13.48-13.16,22.54-12.18c7.52,0.78,14.1,4.81,18.04,11.07
								c1.21,1.92,2.13,3.99,2.74,6.13l2-3.81c4.8-9.13,14.5-14.08,24.22-12.41c7.75,1.29,14.17,5.95,17.57,12.78
								c3.36,6.75,3.28,14.75-0.2,21.41l-2.27,4.26c5.69-1.89,12.26-1.65,18.6,1.05c5.72,2.47,9.5,6.22,11.26,11.17
								c2.09,5.89,0.98,12.49-1.12,18.53c3.44-1.56,7.22-2.44,10.95-2.44c0.02,0,0.03,0,0.04,0c9.23,0.02,16.98,5.15,21.8,14.45
								c1.27,2.45,5.14,9.91-107.48,222.97l-0.62,1.18c-0.41,0.78-1.14,1.35-1.99,1.57
								C1791.59,1398.01,1791.33,1398.04,1791.06,1398.04z M1634.7,1287.86l155.21,102.52c63.27-119.77,105.71-205.94,106.24-215.69
								c-4.72-8.78-11.3-10.64-16.02-10.65c-0.01,0-0.02,0-0.03,0c-6.88,0-14.19,4.07-17.03,9.48c-0.8,1.53-2.69,2.13-4.23,1.33
								c-1.54-0.8-2.13-2.69-1.33-4.23c0,0,0,0,0-0.01l0,0c3.5-6.74,9.73-18.7,6.84-26.82c-1.17-3.28-3.72-5.74-7.82-7.51
								c-9.32-3.98-19.19-1.02-23.48,7.01l0,0c0,0,0,0,0,0.01c-0.82,1.53-2.72,2.11-4.24,1.29c-1.53-0.81-2.11-2.71-1.29-4.24
								l9.62-18.07c2.54-4.86,2.6-10.73,0.13-15.68c-2.5-5.01-7.24-8.43-13-9.39c-7.04-1.21-14.09,2.43-17.58,9.06l-8.14,15.56
								c-0.76,1.46-2.52,2.08-4.03,1.42c-1.51-0.66-2.25-2.38-1.69-3.93c1.72-4.82,1.06-10.37-1.77-14.86
								c-2.95-4.68-7.71-7.59-13.39-8.18c-6.6-0.72-13.23,2.94-16.45,9.1c-0.05,0.1-0.11,0.19-0.17,0.28l-56.93,109.04
								c-0.52,1-1.54,1.64-2.67,1.68c-1.11,0.06-2.19-0.53-2.78-1.48l-29.16-47c-3.92-5.27-9.92-8.65-16.73-9.31
								c-6.72-0.66-13.5,1.58-18.52,6.15c-3.79,3.48-6.39,8.15-7.33,13.14c-0.78,3.84,5.89,20.8,9.1,28.95
								c1.47,3.75,2.64,6.71,3.21,8.49C1651.85,1254.01,1643.23,1271.31,1634.7,1287.86z M1896.16,1174.42L1896.16,1174.42
								L1896.16,1174.42z" class="color030047 svgShape"></path><line x1="1830.34" x2="1806.99" y1="1141.81" y2="1186.03" fill="#fff"></line><path fill="#030047" d="M1806.99,1189.17c-0.49,0-0.99-0.12-1.46-0.36c-1.53-0.81-2.12-2.71-1.31-4.24l23.35-44.22
								c0.8-1.53,2.7-2.12,4.24-1.31c1.53,0.81,2.12,2.71,1.31,4.24l-23.35,44.22C1809.21,1188.56,1808.12,1189.17,1806.99,1189.17z
								" class="color030047 svgShape"></path><line x1="1795.8" x2="1771.13" y1="1120.37" y2="1167.1" fill="#fff"></line><path fill="#030047" d="M1771.12,1170.24c-0.49,0-0.99-0.12-1.46-0.36c-1.53-0.81-2.12-2.71-1.31-4.24l24.67-46.73
								c0.8-1.53,2.7-2.12,4.24-1.31c1.53,0.81,2.12,2.71,1.31,4.24l-24.67,46.73C1773.34,1169.63,1772.25,1170.24,1771.12,1170.24z
								" class="color030047 svgShape"></path><line x1="1866.2" x2="1842.89" y1="1160.84" y2="1204.99" fill="#fff"></line><path fill="#030047" d="M1842.89,1208.12c-0.49,0-0.99-0.12-1.46-0.36c-1.53-0.81-2.12-2.71-1.31-4.24l23.3-44.14
								c0.8-1.53,2.7-2.12,4.24-1.31c1.53,0.81,2.12,2.71,1.31,4.24l-23.3,44.14C1845.11,1207.52,1844.02,1208.12,1842.89,1208.12z" class="color030047 svgShape"></path><path fill="#605efd" d="M1800.81,1390.05l-221.57,359.02c-32.05,51.93-86.01,86.42-146.6,93.7h0
							c-47.79,5.74-96.06-5.91-135.96-32.83l-248.36-167.54l-9.62-165.99l94.08-20.23c25.14-5.43,51.27-3.71,75.49,4.99
							l183.68,138.05l235.21-336.78L1800.81,1390.05z" class="color605efd svgShape"></path><path fill="#030047" d="M1579.24,1752.21c-0.56,0-1.13-0.15-1.64-0.47c-1.47-0.91-1.93-2.84-1.02-4.32l220.06-356.56
							l-168.72-123.99l-270.64,387.52c-1,1.42-2.95,1.77-4.37,0.78c-1.42-0.99-1.77-2.95-0.78-4.37l272.48-390.16
							c0.49-0.69,1.23-1.16,2.06-1.3c0.82-0.14,1.69,0.06,2.37,0.57l173.64,127.61c1.31,0.97,1.67,2.78,0.81,4.18l-221.57,359.02
							C1581.32,1751.68,1580.29,1752.21,1579.24,1752.21z" class="color030047 svgShape"></path><path fill="#605efd" d="M681.74,1964.78h593.03l-141.43-451.01c-9-28.68-37.82-46.29-67.45-41.21c0,0-155.12,21.34-205.3,35.25
							c-49.83,13.8-161.91,74.88-161.91,74.88c-24.44,9.49-39.9,33.75-38.17,59.92L681.74,1964.78z" class="color605efd svgShape"></path><path fill="#ffffff" d="M1015.93,1723.89c-0.8,0-1.6-0.09-2.37-0.26c-4.2-0.95-7.88-4.13-10.1-8.74
							c-1.5-3.11-2.18-6.37-2.85-9.52l-0.35-1.64c-0.66-3.03-1.48-3.89-2.05-4.09c-0.55-0.18-1.48,0.05-2.38,0.58
							c-0.84,0.5-1.58,1.14-2.33,1.77c-0.49,0.41-0.98,0.82-1.48,1.2c-3.59,2.76-7.83,4.3-11.94,4.35
							c-4.76,0.06-9.26-1.95-12.03-5.34c-3.69-4.5-3.78-10.4-3.52-14.45c0.49-7.91,2.67-15.86,6.3-22.98
							c0.78-1.54,2.67-2.16,4.22-1.37c1.54,0.79,2.16,2.68,1.37,4.22c-3.25,6.37-5.2,13.46-5.63,20.52
							c-0.3,4.75,0.37,7.95,2.12,10.08c1.56,1.91,4.33,3.03,7.12,3.04c2.76-0.03,5.67-1.11,8.19-3.05c0.44-0.33,0.85-0.69,1.27-1.04
							c0.96-0.8,1.95-1.63,3.15-2.35c2.54-1.52,5.24-1.93,7.57-1.14c4.63,1.55,5.76,6.74,6.19,8.69l0.36,1.69
							c0.61,2.92,1.2,5.67,2.36,8.1c1.36,2.83,3.54,4.83,5.83,5.35c2.19,0.5,4.76-0.71,5.21-2.43c0.44-1.68,2.17-2.67,3.83-2.24
							c1.68,0.44,2.68,2.15,2.24,3.83C1024.99,1721.36,1020.33,1723.89,1015.93,1723.89z" opacity=".4" class="colorfff svgShape"></path><path fill="#030047" d="M1274.77,1967.92c-1.34,0-2.57-0.86-2.99-2.2l-124.39-396.65c-0.52-1.65,0.4-3.41,2.05-3.93
							c1.66-0.52,3.41,0.4,3.93,2.05l124.39,396.65c0.52,1.65-0.4,3.41-2.05,3.93C1275.39,1967.87,1275.08,1967.92,1274.77,1967.92z
							" class="color030047 svgShape"></path><path fill="#ffffff" d="M944.75,1333.23l14.76,151.73c0,0,99.76,76.25,8.05,117.15c-131.32,58.58-161.61-68.61-161.61-68.61
								l-22.99-194.18L944.75,1333.23z" class="colorfff svgShape"></path><path fill="#030047" d="M903.96 1620.68c-15.41 0-29.62-3.19-42.56-9.58-45.02-22.23-57.97-74.65-58.49-76.87l-23.05-194.53c-.1-.87.16-1.74.73-2.41.57-.67 1.39-1.06 2.27-1.1l161.78-6.09c1.79-.11 3.08 1.18 3.24 2.83l14.64 150.39c7.68 6.12 50.87 42.23 46.68 78.06-2.1 17.93-15.67 32.6-40.34 43.6C945.38 1615.44 923.7 1620.68 903.96 1620.68zM786.49 1342.33l22.59 190.8c.06.16 12.78 51.47 55.15 72.37 27.75 13.68 62.09 11.58 102.07-6.25 22.5-10.04 34.84-23.02 36.67-38.59 4.1-34.93-44.85-72.83-45.35-73.2-.69-.53-1.13-1.32-1.21-2.19l-14.48-148.79L786.49 1342.33zM855.39 1127.16c3.26 24.16 29.63 40.54 58.9 36.59s50.34-26.74 47.08-50.9-49.55-73.89-78.82-69.94C853.29 1046.86 852.13 1103 855.39 1127.16z" class="color030047 svgShape"></path><path fill="#ffffff" d="M779.97,1372.18c-6.73-5.98-13.06-12.51-18.92-19.57c-26.27-31.65-46.94-70.03-74.54-107.95
													l187.04-161.81c4.56,2.1,95.69,56.13,139.25,179.74c29.92,84.89,1.46,130.75-61.37,148.63
													c-29.64,8.44-60.35,9.06-89.4,2.68" class="colorfff svgShape"></path><path fill="#030047" d="M901.43,1421.3c-13.44,0-26.89-1.44-40.07-4.34c-1.69-0.37-2.76-2.04-2.39-3.74
													s2.04-2.76,3.74-2.39c29.03,6.38,59.4,5.47,87.87-2.63c30.34-8.64,51.22-23.63,62.05-44.56
													c12.81-24.77,11.88-58.42-2.77-100.01c-40.58-115.16-123.12-169.2-135.93-176.96l-183.19,158.47
													c10.98,15.25,20.9,30.55,30.49,45.37c13.96,21.54,27.13,41.89,42.24,60.09c5.69,6.85,11.95,13.32,18.59,19.23
													c1.29,1.15,1.41,3.13,0.26,4.43c-1.16,1.3-3.14,1.41-4.43,0.26c-6.88-6.11-13.36-12.81-19.25-19.91
													c-15.34-18.48-28.61-38.98-42.67-60.68c-10.04-15.51-20.43-31.54-31.99-47.42c-0.96-1.32-0.75-3.15,0.49-4.22
													l187.04-161.81c0.93-0.8,2.24-0.99,3.36-0.48c0.92,0.42,95.47,52.63,140.9,181.55c15.26,43.29,16.07,78.6,2.43,104.98
													c-11.65,22.53-33.83,38.58-65.9,47.71C935.76,1418.94,918.61,1421.3,901.43,1421.3z" class="color030047 svgShape"></path><path fill="#030047" d="M792.21,1437.71l1.44-35.09l11.8-80.1l0,0c6.05,6.02,16.3,2.84,18-5.53
										c3.03-14.98-18.51-58.16-42.23-83.55c0,0,162.64-54.22,141.47-131c-37.07-134.46-112.29-116.9-191.12-5.18
										c-39.04,55.33-148.9,110.99-66.61,196.2C641.08,1372.89,745.71,1442.97,792.21,1437.71z" class="color030047 svgShape"></path><path fill="#ffffff" d="M826.1,1384.08c0,0-18.07,18.99-48.3,21.47c-30.23,2.48-68.94-75.7-48.85-92.38
											c20.08-16.68,76.51,9.35,76.51,9.35" class="colorfff svgShape"></path><path fill="#030047" d="M776.38,1408.74c-18.76,0-38.85-25.21-49.32-50.9c-9-22.07-9.04-39.67-0.11-47.09
											c21.36-17.73,77.45,7.82,79.82,8.92c1.57,0.73,2.26,2.59,1.53,4.16c-0.72,1.57-2.56,2.26-4.16,1.54
											c-15.2-7.01-57.97-22.42-73.18-9.79c-6.52,5.41-5.77,21.07,1.91,39.89c9.82,24.07,29.39,48.23,44.68,46.95
											c28.71-2.35,46.11-20.32,46.29-20.5c1.19-1.25,3.18-1.31,4.43-0.11c1.26,1.19,1.31,3.18,0.11,4.43
											c-0.77,0.81-19.25,19.89-50.32,22.43C777.5,1408.72,776.94,1408.74,776.38,1408.74z" class="color030047 svgShape"></path><path fill="#ffffff" d="M789.81,1341.03c-5.45-4.75-11.9-8.36-18.8-10.52c-4.33-1.35-8.93-2.14-13.4-1.39
											c-4.47,0.75-8.8,3.22-11.03,7.16c-3.16,5.59-1.55,12.61,0.8,18.59c4.29,10.89,12.54,21.29,24.79,24" class="colorfff svgShape"></path><path fill="#030047" d="M772.17,1382.01c-0.22,0-0.45-0.02-0.68-0.07c-11.71-2.59-21.56-12.04-27.03-25.92
											c-3.5-8.86-3.7-15.82-0.61-21.28c2.53-4.49,7.49-7.74,13.24-8.71c4.41-0.74,9.27-0.26,14.86,1.49
											c7.29,2.28,14.18,6.14,19.92,11.15c1.31,1.14,1.44,3.12,0.3,4.42c-1.14,1.3-3.12,1.44-4.43,0.3
											c-5.1-4.44-11.21-7.86-17.67-9.89c-4.62-1.45-8.53-1.87-11.95-1.29c-3.91,0.66-7.21,2.75-8.82,5.61
											c-2.09,3.71-1.77,8.9,0.98,15.89c2.22,5.64,8.86,19.06,22.55,22.09c1.69,0.38,2.76,2.05,2.38,3.74
											C774.9,1381.02,773.6,1382.01,772.17,1382.01z" class="color030047 svgShape"></path><ellipse cx="890.93" cy="1271.73" fill="#030047" rx="9.61" ry="14.33" transform="rotate(-25.133 890.933 1271.749)" class="color030047 svgShape"></ellipse><path fill="#ffffff" d="M928.68,1257.28c2.49,7.31,18,28.35,24.59,32.37c6.59,4.02,23.5,5.38,25.62,12.81
										c1.96,6.87,0.18,14.69-4.56,20.04" class="colorfff svgShape"></path><path fill="#030047" d="M974.32 1325.64c-.74 0-1.48-.26-2.08-.79-1.29-1.15-1.41-3.13-.26-4.43 4.03-4.54 5.56-11.26 3.89-17.1-.89-3.15-8.31-5.38-13.73-7.01-4.02-1.21-7.82-2.35-10.5-3.99-7.28-4.44-23.24-26.13-25.93-34.04-.56-1.64.32-3.42 1.96-3.98 1.64-.56 3.42.32 3.98 1.96 2.26 6.63 17.24 27.03 23.26 30.71 1.99 1.21 5.41 2.24 9.04 3.33 7.55 2.27 16.12 4.85 17.96 11.29 2.24 7.85.18 16.88-5.24 22.98C976.05 1325.29 975.19 1325.64 974.32 1325.64zM929.22 1361.06c-4.25 0-8.5-.85-12.37-2.56-7.7-3.4-13.92-10.18-16.64-18.15-.56-1.64.32-3.42 1.96-3.98 1.64-.56 3.42.32 3.98 1.96 2.16 6.34 7.11 11.74 13.23 14.44 6.12 2.7 13.44 2.72 19.58.04 1.59-.69 3.43.03 4.13 1.62.69 1.59-.03 3.44-1.62 4.13C937.63 1360.22 933.42 1361.06 929.22 1361.06zM867.35 1259.21c-.45 0-.91-.1-1.35-.31-1.56-.75-2.22-2.62-1.47-4.18 5.5-11.48 14.67-16.58 28.72-16.03 1.73.07 3.08 1.52 3.01 3.25-.07 1.73-1.56 3.07-3.25 3.01-14.53-.55-19.72 5.99-22.83 12.47C869.65 1258.56 868.52 1259.21 867.35 1259.21z" class="color030047 svgShape"></path><ellipse cx="955.88" cy="1237.02" fill="#030047" rx="9.61" ry="14.33" transform="rotate(-25.133 955.885 1237.035)" class="color030047 svgShape"></ellipse><path fill="#030047" d="M932.3 1224.5c-.6 0-1.21-.17-1.75-.54-1.44-.97-1.81-2.92-.84-4.36 6.88-10.18 16.41-15.44 28.32-15.63 1.66.04 3.16 1.35 3.19 3.09.03 1.73-1.36 3.16-3.09 3.19-9.88.16-17.48 4.37-23.23 12.87C934.3 1224.02 933.31 1224.5 932.3 1224.5zM1998.95 1967.06H451.79c-1.73 0-3.14-1.4-3.14-3.14 0-1.73 1.4-3.14 3.14-3.14h1547.16c1.73 0 3.14 1.4 3.14 3.14C2002.09 1965.65 2000.68 1967.06 1998.95 1967.06z" class="color030047 svgShape"></path><path fill="#ffcc3d" d="M2037.86,1286.25l-781.21,472.15c-39.55-3.8-70.51-37.13-70.51-77.67v-394.48H2037.86z" class="colorffcc3d svgShape"></path><path fill="#030047" d="M1256.65,1761.53c-0.1,0-0.2,0-0.3-0.01c-41.81-4.02-73.34-38.75-73.34-80.79v-394.48
							c0-1.73,1.4-3.14,3.14-3.14h851.72c1.41,0,2.64,0.94,3.02,2.29c0.38,1.36-0.2,2.8-1.4,3.53l-781.21,472.15
							C1257.78,1761.38,1257.22,1761.53,1256.65,1761.53z M1189.28,1289.39v391.34c0,38.45,28.58,70.27,66.65,74.44l770.68-465.78
							H1189.28z" class="color030047 svgShape"></path><path fill="#ffcc3d" d="M2037.86,1286.25v394.48c0,43.13-34.94,78.03-78.03,78.03h-695.67c-2.55,0-5.06-0.13-7.52-0.36
							L2037.86,1286.25z" class="colorffcc3d svgShape"></path><path fill="#030047" d="M1959.84,1761.89h-695.67c-2.49,0-5.04-0.12-7.8-0.37c-1.35-0.12-2.47-1.1-2.77-2.42
							c-0.31-1.32,0.27-2.69,1.43-3.39l781.21-472.15c0.97-0.58,2.18-0.6,3.16-0.05c0.99,0.56,1.6,1.6,1.6,2.73v394.48
							C2041,1725.48,2004.59,1761.89,1959.84,1761.89z M1267.31,1755.62h692.52c41.3,0,74.89-33.6,74.89-74.89v-388.92
							L1267.31,1755.62z" class="color030047 svgShape"></path><path fill="#030047" d="M2037.86,1286.25l-95.92,57.98l-329.92,199.45l-425.88-257.44l95.92-92.12l214.98-206.39l62.1-59.64
							c29.53-28.36,76.19-28.36,105.77,0l62.1,59.64l214.93,206.39L2037.86,1286.25z" class="color030047 svgShape"></path><path fill="#030047" d="M1612.02,1546.82c-0.56,0-1.12-0.15-1.62-0.45l-425.88-257.44c-0.84-0.5-1.39-1.37-1.49-2.34
							c-0.11-0.97,0.24-1.93,0.94-2.61l373-358.15c30.85-29.63,79.22-29.64,110.11,0l372.95,358.15c0.7,0.68,1.05,1.64,0.94,2.61
							c-0.11,0.97-0.66,1.83-1.49,2.34l-425.84,257.44C1613.15,1546.67,1612.59,1546.82,1612.02,1546.82z M1191.26,1285.68
							l420.76,254.34l420.72-254.34l-370.01-355.31c-28.45-27.29-73-27.3-101.42,0L1191.26,1285.68z" class="color030047 svgShape"></path><path fill="#ffffff" d="M1941.92,1078.54v247.26c0,11.44-5.98,22.04-15.77,27.96l-297.25,179.7c-10.39,6.28-23.41,6.28-33.8,0
								l-297.29-179.7c-9.79-5.92-15.77-16.52-15.77-27.96v-247.26c0-50.15,40.66-90.81,90.81-90.81h478.26
								C1901.27,987.73,1941.92,1028.38,1941.92,1078.54z" class="colorfff svgShape"></path><path fill="#030047" d="M1612.01,1541.32c-6.41,0-12.81-1.73-18.52-5.18l-297.29-179.7c-10.66-6.45-17.29-18.19-17.29-30.64
								v-247.26c0-51.8,42.14-93.94,93.94-93.94h478.26c51.8,0,93.94,42.14,93.94,93.94v247.26c0,12.46-6.62,24.2-17.29,30.64
								l-297.25,179.7C1624.82,1539.59,1618.41,1541.32,1612.01,1541.32z M1372.86,990.86c-48.34,0-87.67,39.33-87.67,87.67v247.26
								c0,10.27,5.46,19.96,14.26,25.28l297.29,179.7c9.42,5.7,21.14,5.7,30.56,0l297.25-179.7c8.79-5.32,14.26-15,14.26-25.28
								v-247.26c0-48.34-39.33-87.67-87.67-87.67H1372.86z" class="color030047 svgShape"></path><path fill="#605efd" d="M1672.53,1315.97c-11.69,0-21.77-1.76-30.26-5.29c-1.92-0.8-3.75-1.68-5.5-2.65
								c-10.07-5.59-22.17-5.01-32.28,0.51c-0.06,0.03-0.11,0.06-0.17,0.09c-5.68,3.07-11.22,4.61-16.62,4.61
								c-12.23,0-23.79-5.15-34.64-15.45c-10.86-10.3-16.29-21.59-16.29-33.88c0-21.05,8.02-40.28,24.06-57.69
								c16.04-17.41,34.26-26.12,54.65-26.12c4.63,0,8.48,1.77,11.57,5.29c3.08,3.53,4.63,7.8,4.63,12.8
								c0,6.83-5.51,11.89-16.54,15.19c-14.66,4.33-25.03,9.28-31.09,14.85c-8.93,8.08-13.4,19.97-13.4,35.68
								c0,3.3,1.49,6.49,4.47,9.56c3.42,3.41,7.66,5.01,12.73,4.78c9.59-0.45,18.46-9.67,26.63-27.65
								c7.38-15.7,13.94-23.56,19.67-23.56c4.63,0,8.38,1.77,11.25,5.29c2.87,3.53,4.3,7.85,4.3,12.97c0,2.28-0.36,5.69-1.07,10.24
								c-0.72,4.55-1.07,7.97-1.07,10.24c0,7.4,3.08,12.06,9.26,14c2.42,0.8,7.66,1.19,15.71,1.19c15.1,0,25.69-3.81,31.75-11.44
								c5.51-6.83,8.27-18.15,8.27-33.97c0-27.88-10.86-50.64-32.58-68.28c-19.84-16.16-43.55-24.24-71.1-24.24
								c-32.08,0-57.21,12.52-75.4,37.55c-16.43,22.3-24.64,50.35-24.64,84.15c0,31.18,9.64,57.47,28.94,78.86
								c20.06,22.3,45.86,33.46,77.39,33.46c8.59,0,18.24-1.63,28.97-4.89c0.85-0.26,1.71-0.56,2.53-0.88l27.7-10.62
								c4.85-1.82,7.99-2.73,9.42-2.73c4.52,0,8.44,1.85,11.74,5.55c3.31,3.7,4.96,8,4.96,12.89c0,10.81-11.74,19.57-35.22,26.29
								c-17.75,5.01-34.34,7.51-49.77,7.51c-15.55,0-31.45-3.1-47.71-9.3c-16.26-6.2-30.18-14.48-41.75-24.84
								c-34.18-30.5-51.26-67.6-51.26-111.29c0-43.7,11.68-80.23,35.06-109.59c24.8-31.41,57.82-47.11,99.05-47.11
								c37.26,0,69.17,11.55,95.74,34.65c27.89,24.47,41.83,55.42,41.83,92.86c0,25.61-6.06,45.29-18.19,59.06
								C1715.58,1308.86,1697,1315.97,1672.53,1315.97z" class="color605efd svgShape"></path><line x1="1612.01" x2="1186.12" y1="1543.67" y2="1286.24" fill="#030047"></line><path fill="#030047" d="M1612,1546.81c-0.55,0-1.11-0.15-1.62-0.45l-425.88-257.44c-1.48-0.89-1.96-2.82-1.06-4.31
							c0.89-1.48,2.82-1.96,4.3-1.06l425.88,257.44c1.48,0.89,1.96,2.82,1.06,4.31C1614.1,1546.27,1613.06,1546.81,1612,1546.81z" class="color030047 svgShape"></path><path fill="#ffffff" d="M1324.65,1510.61c4.31,6.51,5.14,14.63,2.52,21.75c-0.73,1.98-1.75,3.91-3,5.7l-71.25,75.37
							c33.4-4.04,36.33,31.79,36.33,31.79c24.99,2.25,24.08,35.28,24.08,35.28c11.09,0.42,16.6,7.9,19.21,16.41
							c4.16,13.36,0.21,27.92-9.32,38.14l-59.35,63.93c-1.46,1.66-3.23,2.83-5.1,3.7c-6.14,2.73-13.7,1.3-18.34-4.15
							c-4.49-5.29-5.05-12.83-1.33-18.59l1.12-1.89l-50.28,37.11l-106.94-148.9l0.06-0.03c0,0,177.13-137.67,206.03-161.14
							C1300.21,1496.04,1316.73,1498.61,1324.65,1510.61z" class="colorfff svgShape"></path><path fill="#030047" d="M1189.93,1818.29c-0.16,0-0.33-0.01-0.49-0.04c-0.83-0.13-1.57-0.59-2.06-1.27l-106.94-148.9
							c-0.54-0.76-0.72-1.72-0.49-2.62c0.2-0.78,0.69-1.45,1.37-1.87c6.78-5.27,177.66-138.12,205.78-160.95
							c5.98-4.86,13.79-6.97,21.4-5.8c7.65,1.18,14.48,5.56,18.75,12.03l0,0c4.78,7.22,5.85,16.4,2.85,24.57
							c-0.8,2.19-1.94,4.35-3.37,6.41c-0.09,0.13-0.19,0.25-0.3,0.37l-66.01,69.83c6.95,0.42,12.99,2.69,18.01,6.79
							c9.67,7.89,12.71,20.27,13.6,25.59c18.43,3.24,23.93,22.82,24.4,35.21c9.25,1.4,15.82,7.69,19.09,18.34
							c4.38,14.08,0.54,29.87-10.02,41.2l-59.35,63.92c-1.58,1.79-3.59,3.25-6.08,4.41c-7.63,3.4-16.68,1.34-22.05-4.96
							c-3.35-3.94-4.87-8.86-4.5-13.68l-41.73,30.8C1191.25,1818.08,1190.6,1818.29,1189.93,1818.29z M1087.31,1666.89
							l103.32,143.86l47.72-35.22c1.2-0.89,2.86-0.8,3.97,0.2c1.11,1,1.36,2.64,0.59,3.93l-1.12,1.89
							c-3.04,4.72-2.6,10.68,1.03,14.95c3.58,4.2,9.61,5.57,14.68,3.32c1.65-0.76,2.98-1.72,4.03-2.91l59.41-63.98
							c9.04-9.69,12.34-23.13,8.62-35.07c-2.84-9.25-8.18-13.9-16.33-14.21c-1.71-0.07-3.06-1.5-3.02-3.22
							c0.03-1.23,0.51-30.12-21.22-32.07c-1.52-0.14-2.72-1.35-2.84-2.86c-0.02-0.15-1.43-15.47-11.68-23.81
							c-5.46-4.44-12.56-6.17-21.15-5.13c-1.35,0.15-2.58-0.52-3.18-1.7c-0.59-1.18-0.38-2.61,0.52-3.57l71.08-75.2
							c1.07-1.56,1.91-3.18,2.5-4.8c2.31-6.3,1.49-13.38-2.19-18.94c0,0,0,0,0,0c-3.3-5-8.57-8.39-14.48-9.29
							c-5.89-0.9-11.89,0.73-16.49,4.47C1264.27,1529.27,1108.33,1650.55,1087.31,1666.89z M1324.17,1538.07h0.04H1324.17z" class="color030047 svgShape"></path><line x1="1240.23" x2="1265.3" y1="1778.07" y2="1751.52" fill="#fff"></line><path fill="#030047" d="M1240.23,1781.2c-0.77,0-1.55-0.28-2.15-0.86c-1.26-1.19-1.32-3.17-0.13-4.43l25.06-26.55
							c1.19-1.26,3.17-1.32,4.43-0.13c1.26,1.19,1.32,3.17,0.13,4.43l-25.06,26.55C1241.89,1780.87,1241.07,1781.2,1240.23,1781.2z" class="color030047 svgShape"></path><line x1="1289.24" x2="1244.73" y1="1645.24" y2="1687.15" fill="#fff"></line><path fill="#030047" d="M1244.73,1690.28c-0.83,0-1.67-0.33-2.28-0.99c-1.19-1.26-1.13-3.25,0.13-4.43l44.51-41.9
							c1.26-1.19,3.24-1.13,4.43,0.13c1.19,1.26,1.13,3.25-0.13,4.43l-44.51,41.9C1246.27,1690,1245.5,1690.28,1244.73,1690.28z" class="color030047 svgShape"></path><line x1="1313.35" x2="1272.95" y1="1680.53" y2="1715.32" fill="#fff"></line><path fill="#030047" d="M1272.95 1718.46c-.88 0-1.76-.37-2.38-1.09-1.13-1.31-.98-3.29.33-4.42l40.4-34.8c1.31-1.13 3.29-.99 4.42.33 1.13 1.31.98 3.29-.33 4.42l-40.4 34.8C1274.4 1718.21 1273.68 1718.46 1272.95 1718.46zM1211.52 1651.72c-.89 0-1.77-.38-2.39-1.11-1.12-1.32-.96-3.3.36-4.42l41.4-35.17c1.31-1.12 3.3-.96 4.42.36 1.12 1.32.96 3.3-.36 4.42l-41.4 35.17C1212.96 1651.48 1212.24 1651.72 1211.52 1651.72z" class="color030047 svgShape"></path><path fill="#605efd" d="M760.99,1550.4l-129.95,62.9c-43.29,21.44-68.87,67.37-64.25,115.46c6.32,65.76,26.06,159.14,42.81,230.84
						c14.86,63.62,67.08,111.71,131.68,121.44h0c39.36,5.93,79.51-3.05,112.59-25.18l354.71-237.27l-97.8-191.52l-306.98,206.8
						L760.99,1550.4z" class="color605efd svgShape"></path><path fill="#030047" d="M853.88,2059c-1.01,0-2.01-0.49-2.61-1.39c-0.96-1.44-0.58-3.39,0.86-4.35l352.4-235.72l-94.93-185.89
						l-304.04,204.83c-0.89,0.6-2.03,0.7-3.01,0.27c-0.98-0.43-1.68-1.34-1.84-2.4l-29.06-192.34c-0.26-1.71,0.92-3.31,2.63-3.57
						c1.73-0.27,3.31,0.92,3.57,2.63l28.32,187.43l302.86-204.03c0.74-0.5,1.67-0.66,2.54-0.43c0.87,0.22,1.6,0.81,2.01,1.61
						l97.8,191.52c0.72,1.42,0.27,3.15-1.05,4.03l-354.71,237.27C855.08,2058.82,854.47,2059,853.88,2059z" class="color030047 svgShape"></path><path fill="#030047" d="M760.99 1867.57c-.98 0-1.94-.46-2.56-1.31-1.01-1.41-.68-3.37.73-4.37l42.82-30.56c1.41-1.01 3.37-.68 4.37.73 1.01 1.41.68 3.37-.73 4.37l-42.82 30.56C762.26 1867.38 761.62 1867.57 760.99 1867.57zM1752.65 949.96c-1.03 0-2.03-.5-2.63-1.43-9.27-14.25-16.77-29.62-22.29-45.67-.56-1.64.31-3.42 1.94-3.99 1.65-.56 3.43.31 3.99 1.94 5.36 15.57 12.63 30.47 21.62 44.3.94 1.45.53 3.39-.92 4.34C1753.83 949.79 1753.24 949.96 1752.65 949.96zM1720.61 855.96c-1.63 0-3.01-1.27-3.12-2.92-.28-4.05-.42-8.17-.42-12.22 0-13.24 1.52-26.21 4.52-38.55.41-1.68 2.1-2.71 3.79-2.31 1.68.41 2.72 2.11 2.31 3.79-2.88 11.86-4.34 24.33-4.34 37.07 0 3.91.14 7.88.41 11.79.12 1.73-1.18 3.23-2.91 3.34C1720.75 855.96 1720.68 855.96 1720.61 855.96zM1885.05 839.06c-1.7 0-3.39-.08-5.08-.23-1.73-.15-3-1.67-2.85-3.4.15-1.73 1.72-2.99 3.4-2.85 3.98.35 8.02.24 11.91-.35 11.3-1.72 21.55-7.77 29.65-17.5 1.11-1.34 3.09-1.51 4.41-.4 1.33 1.11 1.51 3.09.4 4.42-9.09 10.92-20.68 17.72-33.52 19.68C1890.64 838.85 1887.85 839.06 1885.05 839.06zM1835.9 817.32c-.76 0-1.53-.28-2.13-.84-1.63-1.51-3.21-3.07-4.72-4.66-10.17-10.72-18.24-23.39-24-37.65-.65-1.61.13-3.43 1.74-4.08 1.6-.65 3.43.13 4.08 1.73 5.46 13.53 13.11 25.54 22.74 35.68 1.43 1.5 2.9 2.96 4.43 4.38 1.27 1.18 1.35 3.16.17 4.43C1837.58 816.98 1836.74 817.32 1835.9 817.32zM1939.72 773.28c-1.64 0-3.02-1.27-3.12-2.93-.27-4.15-.98-8.21-2.12-12.07-3.28-11.13-9.46-21.25-18.37-30.08-1.23-1.22-1.24-3.21-.02-4.43 1.22-1.23 3.2-1.24 4.43-.02 9.66 9.58 16.38 20.6 19.97 32.75 1.27 4.3 2.06 8.82 2.36 13.44.11 1.73-1.2 3.22-2.93 3.33C1939.86 773.28 1939.79 773.28 1939.72 773.28zM1744.81 760.51c-.61 0-1.23-.18-1.77-.55-1.43-.98-1.79-2.93-.81-4.36 9.59-13.99 21.99-26.55 35.84-36.33 1.43-1 3.38-.66 4.37.76 1 1.41.66 3.37-.76 4.37-13.25 9.35-25.11 21.36-34.29 34.75C1746.79 760.04 1745.81 760.51 1744.81 760.51zM1798.88 727.11c-.02 0-.04 0-.06 0-1.73-.03-3.11-1.46-3.08-3.19.26-14.69 3.04-28.8 8.26-41.95 1.05-2.63 2.2-5.27 3.43-7.82.75-1.56 2.62-2.22 4.18-1.47 1.56.75 2.22 2.62 1.47 4.19-1.16 2.43-2.26 4.92-3.25 7.42-4.94 12.44-7.57 25.81-7.82 39.74C1801.98 725.74 1800.59 727.11 1798.88 727.11zM1875.01 704.91c-.26 0-.53-.03-.79-.1-4.42-1.15-8.92-1.98-13.39-2.47-11.39-1.26-23.21-.56-34.83 2.05-1.69.38-3.37-.68-3.75-2.37-.38-1.69.68-3.37 2.37-3.75 12.3-2.77 24.82-3.5 36.89-2.17 4.77.53 9.57 1.41 14.28 2.64 1.68.44 2.68 2.15 2.25 3.82C1877.67 703.97 1876.4 704.91 1875.01 704.91zM1839.89 638.48c-.82 0-1.65-.32-2.26-.96-1.2-1.25-1.16-3.23.09-4.43 11.74-11.27 25.58-21.33 41.16-29.88 1.53-.83 3.43-.28 4.26 1.24.83 1.52.28 3.42-1.24 4.26-15.09 8.29-28.49 18.01-39.83 28.91C1841.45 638.19 1840.67 638.48 1839.89 638.48zM1926.43 589.32c-1.31 0-2.53-.82-2.97-2.13-.55-1.64.33-3.42 1.97-3.98 17.26-5.84 34.98-10.46 48.49-13.83 1.65-.41 3.38.6 3.8 2.28.42 1.68-.6 3.38-2.28 3.8-13.39 3.34-30.95 7.92-48 13.69C1927.1 589.27 1926.76 589.32 1926.43 589.32zM2023.42 563.7c-1.41 0-2.7-.96-3.04-2.4-.41-1.68.62-3.38 2.31-3.79l48.77-11.82c1.67-.4 3.38.62 3.79 2.31.41 1.68-.62 3.38-2.31 3.79l-48.77 11.82C2023.91 563.67 2023.66 563.7 2023.42 563.7zM2120.95 540.07c-1.41 0-2.7-.96-3.04-2.4-.41-1.68.62-3.38 2.31-3.79l13.42-3.25c1.65-.4 3.38.63 3.79 2.31.4 1.68-.63 3.38-2.32 3.79l-13.41 3.25C2121.45 540.04 2121.2 540.07 2120.95 540.07zM1573.53 849.54c-.18 0-.37-.02-.56-.05-1.7-.3-2.84-1.93-2.54-3.64.66-3.71 1-7.54 1-11.39 0-11.61-3.14-23.77-9.07-35.16-.8-1.54-.2-3.43 1.33-4.23 1.56-.8 3.43-.2 4.23 1.33 6.39 12.28 9.78 25.44 9.78 38.06 0 4.22-.37 8.42-1.09 12.49C1576.34 848.47 1575.02 849.54 1573.53 849.54zM1426.69 848.35c-1.74 0-3.47-.05-5.2-.14-1.73-.1-3.05-1.57-2.96-3.3.1-1.73 1.7-3.04 3.3-2.96 10.52.58 21.2-.71 31.47-3.77 5.55-1.65 10.73-3.74 15.4-6.21 1.52-.81 3.43-.22 4.24 1.3.81 1.53.22 3.43-1.31 4.24-5.03 2.66-10.59 4.91-16.54 6.68C1445.82 846.95 1436.26 848.35 1426.69 848.35zM1375.98 830.06c-.77 0-1.54-.28-2.14-.85-11.54-10.8-18.43-27.06-18.43-43.51 0-1.48.06-2.96.17-4.43.14-1.73 1.69-2.99 3.38-2.88 1.73.14 3.01 1.65 2.88 3.38-.11 1.3-.16 2.62-.16 3.93 0 14.75 6.15 29.3 16.45 38.93 1.26 1.18 1.33 3.17.15 4.43C1377.65 829.72 1376.81 830.06 1375.98 830.06zM1499.06 799.25c-.17 0-.34-.01-.51-.04-1.71-.28-2.87-1.89-2.59-3.6.59-3.65.89-7.6.89-11.75 0-4.96-.41-10.2-1.25-16.04-.98-6.83-2.41-13.73-4.24-20.51-.09-.34-.12-.68-.1-1.01-2-.54-4.03-1.04-6.09-1.51-1.69-.39-2.74-2.07-2.36-3.75.39-1.69 2.1-2.75 3.76-2.36 16.24 3.71 30.83 9.5 43.35 17.19 1.27.78 2.53 1.59 3.77 2.43 1.44.97 1.81 2.92.84 4.35-.97 1.43-2.92 1.82-4.35.84-1.17-.79-2.35-1.55-3.54-2.28-8.53-5.24-18.09-9.56-28.53-12.89 1.56 6.17 2.81 12.41 3.7 18.61.89 6.14 1.31 11.67 1.31 16.93 0 4.49-.33 8.78-.98 12.76C1501.9 798.16 1500.57 799.25 1499.06 799.25zM1386.69 746.28c-1.22 0-2.38-.72-2.89-1.91-.68-1.59.07-3.43 1.66-4.11 13.62-5.78 29.37-6.75 41.57-6.94 1.89-.03 3.79-.04 5.69-.04l3.38.02c1.73.02 3.12 1.43 3.11 3.16-.02 1.72-1.42 3.11-3.14 3.11-.01 0-.02 0-.03 0l-3.32-.02c-1.86 0-3.72.02-5.59.04-11.63.18-26.6 1.08-39.22 6.44C1387.52 746.2 1387.1 746.28 1386.69 746.28zM1475.19 703.44c-1.09 0-2.15-.57-2.73-1.59-7.88-13.85-17.61-27.34-28.92-40.08-1.15-1.3-1.03-3.28.26-4.43 1.29-1.14 3.28-1.03 4.43.26 11.61 13.07 21.59 26.91 29.69 41.15.85 1.5.33 3.42-1.18 4.28C1476.25 703.31 1475.72 703.44 1475.19 703.44zM1409.37 628.49c-.68 0-1.36-.22-1.94-.68-7.1-5.61-14.57-10.98-22.19-15.96-6.07-3.97-12.49-7.9-19.09-11.66-1.5-.86-2.03-2.78-1.17-4.28s2.78-2.03 4.28-1.17c6.71 3.83 13.23 7.82 19.4 11.86 7.78 5.08 15.39 10.56 22.64 16.29 1.36 1.07 1.59 3.05.52 4.4C1411.22 628.08 1410.3 628.49 1409.37 628.49zM1322.81 578.27c-.42 0-.85-.08-1.25-.26-14.12-6.14-29.35-12.07-46.54-18.11-1.63-.57-2.49-2.36-1.92-4 .58-1.63 2.37-2.49 4-1.92 17.34 6.1 32.7 12.08 46.96 18.28 1.59.69 2.32 2.54 1.63 4.13C1325.17 577.57 1324.01 578.27 1322.81 578.27zM1228.38 544.43c-.31 0-.62-.04-.93-.14-8.45-2.63-16.9-5.21-25.33-7.79-1.66-.51-2.59-2.26-2.08-3.92.51-1.66 2.27-2.6 3.91-2.08 8.45 2.58 16.91 5.17 25.37 7.8 1.65.52 2.58 2.27 2.06 3.93C1230.95 543.57 1229.72 544.43 1228.38 544.43z" class="color030047 svgShape"></path><polygon fill="#ffcc3d" points="1936.91 490.05 2250 466.95 2138.94 593.12" class="colorffcc3d svgShape"></polygon><polygon fill="#030047" points="1997.81 521.12 2196.11 478.51 2023.29 534.12 2004.13 580.88" class="color030047 svgShape"></polygon><polygon fill="#efb525" points="2004.13 580.88 2064.35 555.07 2023.29 534.12" class="colorefb525 svgShape"></polygon><polygon fill="#ffcc3d" points="1251.82 440.29 938.73 417.18 1049.79 543.36" class="colorffcc3d svgShape"></polygon><polygon fill="#030047" points="1190.92 471.35 992.62 428.74 1165.44 484.36 1184.6 531.11" class="color030047 svgShape"></polygon><polygon fill="#efb525" points="1184.6 531.11 1124.38 505.3 1165.44 484.36" class="colorefb525 svgShape"></polygon><g fill="#000000" class="color000 svgShape"><circle cx="423.24" cy="1347.52" r="173.2" fill="#030047" class="color030047 svgShape"></circle><polygon fill="#ffffff" points="415.39 1431.45 346.17 1390.78 367.36 1354.72 400.52 1374.21 461.13 1271.07 497.18 1292.25" class="colorfff svgShape"></polygon></g><g fill="#000000" class="color000 svgShape"><path fill="#030047" d="M582.76,1387.45l21.39,65.34c3.46,10.58-4.64,21.39-15.77,21.02l-68.72-2.26L582.76,1387.45z" class="color030047 svgShape"></path></g><g fill="#000000" class="color000 svgShape"><path fill="#030047" d="M1192.24,1009.57c-0.45,0-0.9-0.09-1.33-0.3c-1.57-0.74-2.24-2.6-1.51-4.17
				c6.84-14.6,11.18-30.47,12.9-47.17c0.18-1.72,1.71-2.96,3.44-2.8c1.72,0.18,2.98,1.72,2.8,3.44c-1.8,17.4-6.33,33.94-13.46,49.18
				C1194.55,1008.9,1193.42,1009.57,1192.24,1009.57z M1020.53,926.98c-1.5,0-2.83-1.08-3.09-2.61c-0.29-1.71,0.86-3.33,2.57-3.62
				c6.08-1.03,11.4-3.36,15.81-6.93c7-5.67,11.27-14.55,12.03-25.01c0.12-1.73,1.67-3.04,3.36-2.9c1.73,0.13,3.03,1.63,2.9,3.36
				c-0.89,12.21-5.98,22.66-14.34,29.43c-5.26,4.26-11.55,7.03-18.71,8.24C1020.88,926.96,1020.71,926.98,1020.53,926.98z
				 M971.98,917.36c-0.43,0-0.87-0.09-1.29-0.28c-12.97-5.87-30.57-16.05-40.73-31.18c-0.96-1.44-0.58-3.39,0.86-4.35
				c1.44-0.97,3.38-0.58,4.35,0.86c9.33,13.9,25.87,23.42,38.11,28.96c1.58,0.71,2.28,2.57,1.56,4.15
				C974.32,916.67,973.18,917.36,971.98,917.36z M1202.92,911.47c-1.46,0-2.77-1.03-3.07-2.51c-3.29-16.27-8.93-31.79-16.75-46.11
				c-0.83-1.52-0.27-3.42,1.25-4.26c1.53-0.83,3.43-0.27,4.26,1.25c8.13,14.87,13.98,30.98,17.4,47.87c0.34,1.7-0.76,3.35-2.45,3.7
				C1203.33,911.45,1203.13,911.47,1202.92,911.47z M1031.92,847.5c-0.8,0-1.6-0.3-2.21-0.91c-5.65-5.6-12.45-10.87-20.81-16.1
				c-6.33-3.96-13.04-7.64-19.94-10.93c-1.56-0.75-2.23-2.62-1.48-4.18c0.74-1.56,2.62-2.23,4.18-1.48
				c7.13,3.39,14.05,7.19,20.58,11.27c8.76,5.48,15.92,11.03,21.9,16.96c1.23,1.22,1.24,3.21,0.02,4.43
				C1033.53,847.2,1032.73,847.5,1031.92,847.5z M931.5,839.93c-0.53,0-1.07-0.13-1.56-0.42c-1.5-0.87-2.01-2.78-1.15-4.28
				c7.1-12.29,18.07-21.65,26.02-27.34c3.71-2.65,7.61-5.17,11.59-7.49c1.5-0.87,3.42-0.36,4.29,1.14c0.87,1.5,0.36,3.42-1.14,4.29
				c-3.81,2.22-7.54,4.63-11.09,7.16c-7.45,5.33-17.7,14.06-24.24,25.38C933.64,839.37,932.59,839.93,931.5,839.93z M1155.17,825.07
				c-0.76,0-1.51-0.27-2.12-0.82c-1.62-1.49-3.28-2.93-4.97-4.34c-10.72-8.92-22.91-16.31-36.21-21.96
				c-1.6-0.68-2.34-2.52-1.66-4.11c0.68-1.6,2.52-2.33,4.11-1.66c13.87,5.89,26.58,13.6,37.77,22.91c1.77,1.47,3.5,2.99,5.2,4.54
				c1.28,1.17,1.36,3.15,0.19,4.43C1156.87,824.72,1156.02,825.07,1155.17,825.07z M693.14,805.69c-1.67,0-3.07-1.33-3.13-3.02
				c-0.07-1.73,1.28-3.19,3.01-3.25c18.21-0.69,36.25-2.14,49.92-3.32c1.73-0.15,3.25,1.13,3.39,2.85c0.15,1.73-1.13,3.24-2.85,3.39
				c-13.74,1.19-31.87,2.64-50.22,3.34C693.22,805.69,693.18,805.69,693.14,805.69z M643,805.3c-0.07,0-0.13,0-0.2-0.01
				c-14.99-0.95-28.81-2.65-42.27-5.22c-2.63-0.5-5.26-1.05-7.89-1.65c-1.69-0.38-2.75-2.06-2.37-3.75
				c0.38-1.69,2.05-2.75,3.75-2.37c2.56,0.58,5.12,1.11,7.69,1.6c13.19,2.52,26.76,4.19,41.48,5.12c1.73,0.11,3.04,1.6,2.93,3.33
				C646.02,804.02,644.64,805.3,643,805.3z M942.99,803.48c-0.24,0-0.48-0.03-0.72-0.08c-15.08-3.56-31.59-6.05-49.09-7.41
				c-1.73-0.13-3.02-1.64-2.89-3.37c0.13-1.73,1.65-3.04,3.37-2.88c17.82,1.38,34.65,3.92,50.04,7.56c1.69,0.4,2.73,2.09,2.33,3.77
				C945.7,802.51,944.41,803.48,942.99,803.48z M793.18,797.89c-1.61,0-2.99-1.24-3.12-2.87c-0.15-1.73,1.14-3.24,2.86-3.39
				c5.19-0.43,10.37-0.85,15.55-1.23c12.41-0.91,23.77-1.49,34.72-1.77c0.03,0,0.06,0,0.08,0c1.69,0,3.09,1.35,3.14,3.05
				c0.04,1.73-1.32,3.17-3.05,3.22c-10.85,0.28-22.11,0.85-34.42,1.75c-5.15,0.38-10.31,0.79-15.48,1.22
				C793.36,797.88,793.27,797.89,793.18,797.89z M1014.7,788.58c-1.46,0-2.76-1.02-3.07-2.51c-0.35-1.7,0.74-3.35,2.44-3.7
				c16.53-3.39,33.91-4.29,50.86-2.66c1.72,0.17,2.98,1.7,2.82,3.42c-0.17,1.73-1.74,2.98-3.42,2.82c-16.33-1.58-33.08-0.71-49,2.56
				C1015.12,788.56,1014.91,788.58,1014.7,788.58z M545.91,782.38c-0.45,0-0.89-0.09-1.32-0.29c-9.41-4.36-18.45-9.33-26.87-14.76
				c-1.46-0.94-1.87-2.88-0.94-4.33c0.94-1.45,2.87-1.88,4.34-0.94c8.18,5.27,16.97,10.1,26.11,14.34c1.57,0.73,2.25,2.59,1.53,4.16
				C548.22,781.71,547.09,782.38,545.91,782.38z" class="color030047 svgShape"></path></g><g fill="#000000" class="color000 svgShape"><polygon fill="#ffcc3d" points="581.57 682.77 284.02 582.68 360.29 732.47" class="colorffcc3d svgShape"></polygon><polygon fill="#030047" points="514.87 697.75 333.35 607.25 486.96 704.02 493.92 754.07" class="color030047 svgShape"></polygon><polygon fill="#efb525" points="493.92 754.07 441.99 714.12 486.96 704.02" class="colorefb525 svgShape"></polygon></g><g fill="#000000" class="color000 svgShape"><path fill="#ffcc3d" d="M1163.17,1175.59l-18.32,19.83c-8.61,9.24-23.05,9.82-32.29,1.28l-19.83-18.31
			c-9.24-8.54-9.81-22.98-1.28-32.22l18.31-19.9c8.54-9.24,22.97-9.81,32.29-1.28l19.83,18.39
			C1171.14,1151.91,1171.71,1166.35,1163.17,1175.59z" class="colorffcc3d svgShape"></path></g><g fill="#000000" class="color000 svgShape"><path fill="#ffcc3d" d="M615.66,1008.48l-12.56,13.6c-5.91,6.34-15.81,6.73-22.15,0.88l-13.6-12.56c-6.34-5.86-6.73-15.76-0.88-22.1
			l12.56-13.65c5.86-6.34,15.76-6.73,22.15-0.88l13.6,12.62C621.12,992.23,621.51,1002.13,615.66,1008.48z" class="colorffcc3d svgShape"></path></g><g fill="#000000" class="color000 svgShape"><path fill="#ffcc3d" d="M1004.27,700.07l-12.56,13.6c-5.91,6.34-15.81,6.73-22.15,0.88l-13.6-12.56c-6.34-5.86-6.73-15.76-0.88-22.1
			l12.56-13.65c5.86-6.34,15.76-6.73,22.15-0.88l13.6,12.62C1009.73,683.82,1010.12,693.73,1004.27,700.07z" class="colorffcc3d svgShape"></path></g><g fill="#000000" class="color000 svgShape"><path fill="#ffcc3d" d="M466.59,1719.39l-12.56,13.6c-5.91,6.34-15.81,6.73-22.15,0.88l-13.6-12.56c-6.34-5.86-6.73-15.76-0.88-22.1
			l12.56-13.65c5.86-6.34,15.76-6.73,22.15-0.88l13.6,12.62C472.05,1703.14,472.45,1713.04,466.59,1719.39z" class="colorffcc3d svgShape"></path></g><g fill="#000000" class="color000 svgShape"><path fill="#ffcc3d" d="M1948.73,913.5l-8.28,8.96c-3.89,4.18-10.42,4.44-14.6,0.58l-8.96-8.28c-4.18-3.86-4.44-10.39-0.58-14.57
			l8.28-9c3.86-4.18,10.39-4.44,14.6-0.58l8.97,8.32C1952.33,902.79,1952.59,909.32,1948.73,913.5z" class="colorffcc3d svgShape"></path></g><g opacity=".4" fill="#000000" class="color000 svgShape"><path fill="#ffffff" d="M733.99,1686.48c-1.39,0-2.66-0.93-3.03-2.34c-2.02-7.69-5.68-15.07-10.58-21.34
			c-3.35-4.29-6.37-6.54-9.5-7.1c-2.82-0.5-6.03,0.49-8.42,2.59c-2.3,2.02-3.93,5.05-4.6,8.52c-0.11,0.59-0.2,1.19-0.29,1.79
			c-0.2,1.34-0.4,2.73-0.86,4.17c-0.98,3.03-2.86,5.24-5.31,6.22c-4.78,1.93-9.43-1.5-11.18-2.79l-1.52-1.14
			c-2.7-2.03-5.25-3.94-8.07-5.17c-3.34-1.44-6.75-1.56-9.11-0.32c-2.27,1.2-3.56,4.21-2.6,6.09c0.79,1.54,0.18,3.43-1.37,4.22
			c-1.54,0.79-3.43,0.18-4.22-1.37c-2.52-4.92-0.05-11.7,5.26-14.5c4.09-2.15,9.39-2.11,14.52,0.11c3.51,1.52,6.48,3.75,9.35,5.91
			l1.48,1.11c2.37,1.75,4.08,2.42,5.11,2.02c0.66-0.27,1.3-1.16,1.68-2.32c0.3-0.94,0.46-2.02,0.63-3.16
			c0.1-0.69,0.2-1.38,0.33-2.07c0.93-4.83,3.28-9.11,6.62-12.04c3.84-3.38,8.96-4.9,13.66-4.06c6.23,1.11,10.6,5.9,13.34,9.41
			c5.42,6.94,9.47,15.1,11.71,23.61c0.44,1.67-0.56,3.39-2.23,3.83C734.52,1686.44,734.25,1686.48,733.99,1686.48z" class="colorfff svgShape"></path></g><g opacity=".4" fill="#000000" class="color000 svgShape"><path fill="#ffffff" d="M629.83,1790.14c-5.59,0-10.15-3.41-13.1-5.99c-5.83-5.1-10.68-11.48-14.03-18.47
			c-0.75-1.56-0.09-3.44,1.47-4.18c1.57-0.75,3.44-0.09,4.19,1.47c2.98,6.23,7.31,11.92,12.5,16.46c3.5,3.06,6.47,4.4,9.05,4.44
			c2.37-0.03,4.86-1.35,6.49-3.45c1.59-2.05,2.47-4.82,2.47-7.83c0-0.53-0.02-1.05-0.04-1.58c-0.05-1.14-0.1-2.43,0.06-3.77
			c0.36-2.88,1.67-5.19,3.72-6.5c3.99-2.55,8.68-0.31,10.44,0.54l1.51,0.73c2.63,1.29,5.1,2.5,7.68,3.07
			c2.99,0.67,5.8,0.23,7.54-1.15c1.6-1.28,2.18-3.81,1.17-5.1c-1.07-1.37-0.82-3.34,0.55-4.4c1.36-1.07,3.34-0.82,4.4,0.55
			c3.15,4.05,2.14,10.39-2.21,13.86c-3.25,2.59-7.93,3.46-12.81,2.36c-3.3-0.73-6.24-2.17-9.08-3.56l-1.46-0.71
			c-2.73-1.31-3.86-1.22-4.34-0.92c-0.42,0.27-0.76,1.05-0.88,1.98c-0.11,0.9-0.06,1.82-0.02,2.74c0.02,0.62,0.05,1.24,0.05,1.86
			c0,4.38-1.35,8.53-3.79,11.66c-2.82,3.63-7.07,5.83-11.37,5.88C629.94,1790.14,629.88,1790.14,629.83,1790.14z" class="colorfff svgShape"></path></g><g opacity=".4" fill="#000000" class="color000 svgShape"><path fill="#ffffff" d="M730.86,1863.13c-4.37,0-8.57-3.31-9.74-8.01c-1-4.04,0.16-8.64,3.2-12.64c2.04-2.69,4.56-4.75,7.01-6.74
			l1.27-1.05c2.32-1.93,2.72-3,2.64-3.56c-0.07-0.49-0.63-1.13-1.43-1.63c-0.78-0.48-1.65-0.82-2.5-1.17
			c-0.57-0.23-1.14-0.47-1.69-0.72c-3.99-1.83-7.19-4.79-9.02-8.31c-2.12-4.08-2.35-8.86-0.6-12.79c2.3-5.18,7.37-7.93,10.98-9.55
			c7.06-3.17,14.88-4.91,22.63-5.04c0.02,0,0.04,0,0.05,0c1.71,0,3.11,1.37,3.14,3.09c0.03,1.73-1.35,3.16-3.08,3.19
			c-6.91,0.11-13.88,1.67-20.17,4.49c-4.24,1.9-6.73,3.93-7.81,6.38c-0.96,2.17-0.8,4.98,0.43,7.34c1.2,2.29,3.36,4.25,6.08,5.51
			c0.47,0.22,0.96,0.41,1.44,0.61c1.06,0.43,2.27,0.92,3.42,1.63c2.47,1.52,4.01,3.68,4.35,6.09c0.67,4.69-3.33,8.01-4.84,9.26
			l-1.31,1.08c-2.26,1.84-4.39,3.58-5.98,5.68c-1.85,2.44-2.64,5.18-2.11,7.33c0.49,1.99,2.58,3.55,4.15,3.19
			c1.67-0.39,3.37,0.65,3.77,2.34c0.4,1.68-0.65,3.37-2.34,3.77C732.15,1863.06,731.5,1863.13,730.86,1863.13z" class="colorfff svgShape"></path></g><g opacity=".4" fill="#000000" class="color000 svgShape"><path fill="#ffffff" d="M677.29,1936.23c-0.6,0-1.22-0.06-1.83-0.18c-3.5-0.7-6.6-3.24-8.51-6.97c-1.27-2.48-1.88-5.06-2.47-7.55
			l-0.3-1.24c-0.59-2.43-1.18-2.64-1.21-2.64c-0.16-0.04-0.63,0.02-1.28,0.42c-0.6,0.38-1.14,0.87-1.68,1.34
			c-0.38,0.34-0.77,0.68-1.16,1c-2.85,2.31-6.27,3.65-9.63,3.77c-4.03,0.13-7.67-1.42-10.03-4.17c-2.34-2.72-3.39-6.54-3.19-11.66
			c0.23-6.27,1.8-12.6,4.54-18.3c0.75-1.56,2.61-2.22,4.19-1.47c1.56,0.75,2.22,2.62,1.47,4.19c-2.37,4.93-3.73,10.4-3.93,15.82
			c-0.13,3.48,0.42,5.87,1.68,7.34c1.12,1.3,3.07,2.01,5.06,1.99c2.01-0.07,4.1-0.92,5.91-2.38c0.33-0.27,0.65-0.55,0.96-0.82
			c0.79-0.7,1.59-1.38,2.48-1.95c2.14-1.34,4.44-1.73,6.46-1.11c4.01,1.23,5.1,5.69,5.46,7.15l0.31,1.29
			c0.53,2.23,1.02,4.33,1.95,6.13c1.02,1.99,2.58,3.37,4.17,3.69c1.3,0.26,2.98-0.51,3.2-1.47c0.4-1.69,2.11-2.72,3.77-2.33
			c1.69,0.4,2.73,2.08,2.34,3.77C685.12,1933.61,681.35,1936.23,677.29,1936.23z" class="colorfff svgShape"></path></g><g opacity=".4" fill="#000000" class="color000 svgShape"><path fill="#ffffff" d="M862.83,1956.2c-1.07,0-2.1-0.54-2.69-1.52c-2.27-3.77-0.8-9.17,3.21-11.78c2.99-1.95,6.99-2.3,10.97-0.97
			c2.63,0.88,4.86,2.29,7.01,3.66l1.11,0.7c2.13,1.32,2.7,1.05,2.71,1.04c0.12-0.06,0.44-0.45,0.62-1.19
			c0.17-0.71,0.21-1.43,0.27-2.15c0.04-0.5,0.08-1.01,0.13-1.52c0.43-3.65,1.94-7,4.25-9.43c2.7-2.84,6.43-4.36,10.08-4.03
			c3.58,0.31,6.99,2.31,10.44,6.11c4.22,4.65,7.52,10.27,9.55,16.26c0.56,1.64-0.32,3.42-1.96,3.98c-1.62,0.55-3.42-0.32-3.97-1.96
			c-1.76-5.18-4.61-10.04-8.26-14.06c-2.34-2.57-4.41-3.91-6.33-4.08c-1.74-0.14-3.63,0.66-5.01,2.11
			c-1.38,1.45-2.29,3.52-2.56,5.84c-0.05,0.41-0.08,0.83-0.11,1.25c-0.08,1.06-0.17,2.12-0.42,3.15c-0.58,2.44-1.95,4.32-3.84,5.3
			c-3.73,1.92-7.62-0.5-8.9-1.29l-1.16-0.73c-1.92-1.22-3.74-2.37-5.64-3.01c-2.13-0.71-4.2-0.61-5.56,0.28
			c-1.1,0.72-1.76,2.44-1.25,3.29c0.89,1.48,0.42,3.41-1.07,4.3C863.94,1956.06,863.38,1956.2,862.83,1956.2z" class="colorfff svgShape"></path></g><g opacity=".4" fill="#000000" class="color000 svgShape"><path fill="#ffffff" d="M774.2,2007.03c-0.8,0-1.6-0.08-2.36-0.26c-4.2-0.95-7.88-4.13-10.1-8.74c-1.5-3.11-2.18-6.36-2.85-9.51
			l-0.36-1.66c-0.66-3.03-1.48-3.89-2.05-4.09c-0.56-0.18-1.49,0.04-2.38,0.58c-0.83,0.5-1.57,1.13-2.32,1.76
			c-0.49,0.41-0.98,0.82-1.49,1.21c-3.59,2.76-7.83,4.3-11.94,4.35c-4.61,0.09-9.27-1.94-12.04-5.34c-3.68-4.5-3.78-10.4-3.53-14.44
			c0.49-7.92,2.68-15.86,6.31-22.99c0.79-1.54,2.66-2.16,4.22-1.37c1.54,0.79,2.16,2.68,1.37,4.22c-3.25,6.36-5.2,13.46-5.64,20.53
			c-0.29,4.75,0.38,7.95,2.12,10.08c1.56,1.9,4.3,2.98,7.12,3.04c2.76-0.03,5.67-1.11,8.19-3.05c0.44-0.33,0.86-0.69,1.28-1.04
			c0.96-0.8,1.94-1.63,3.14-2.34c2.54-1.51,5.23-1.92,7.58-1.14c4.63,1.55,5.76,6.74,6.19,8.69l0.37,1.7
			c0.61,2.91,1.19,5.66,2.36,8.08c1.36,2.83,3.54,4.83,5.83,5.35c2.2,0.48,4.76-0.71,5.21-2.43c0.45-1.68,2.18-2.67,3.83-2.24
			c1.67,0.44,2.68,2.16,2.24,3.83C783.26,2004.51,778.6,2007.03,774.2,2007.03z" class="colorfff svgShape"></path></g><g opacity=".4" fill="#000000" class="color000 svgShape"><path fill="#ffffff" d="M1019.65,1921.71c-4.17,0-8.11-2.88-9.78-6.49c-1.8-3.9-1.53-8.76,0.77-13.33c1.55-3.08,3.72-5.61,5.81-8.05
			l1.1-1.29c2-2.37,2.18-3.55,1.98-4.12c-0.19-0.55-0.94-1.15-1.91-1.53c-0.91-0.36-1.87-0.56-2.82-0.77
			c-0.62-0.14-1.24-0.28-1.85-0.44c-4.38-1.17-8.19-3.59-10.73-6.82c-2.94-3.74-4.1-8.53-3.1-12.8c1.32-5.66,5.95-9.33,9.31-11.6
			c6.57-4.44,14.21-7.55,22.07-9.01c1.74-0.33,3.34,0.81,3.65,2.51c0.31,1.7-0.81,3.34-2.51,3.65c-7.02,1.3-13.83,4.08-19.7,8.04
			c-3.95,2.66-6.08,5.15-6.71,7.82c-0.56,2.4,0.18,5.27,1.93,7.5c1.7,2.17,4.34,3.82,7.41,4.64c0.53,0.14,1.06,0.26,1.59,0.38
			c1.22,0.27,2.49,0.55,3.79,1.07c2.76,1.1,4.72,2.99,5.52,5.32c1.59,4.61-1.83,8.67-3.12,10.2l-1.13,1.33
			c-1.94,2.26-3.76,4.39-4.97,6.79c-1.41,2.81-1.67,5.76-0.68,7.88c0.94,2.03,3.46,3.34,5.09,2.65c1.6-0.67,3.44,0.07,4.11,1.67
			c0.67,1.59-0.08,3.43-1.67,4.11C1021.96,1921.49,1020.8,1921.71,1019.65,1921.71z" class="colorfff svgShape"></path></g><g opacity=".4" fill="#000000" class="color000 svgShape"><path fill="#ffffff" d="M898.92,1867.06c-5.66,0-11.35-0.82-16.77-2.43c-1.66-0.49-2.61-2.24-2.12-3.9c0.49-1.66,2.25-2.61,3.9-2.12
			c6.85,2.03,14.17,2.66,21.21,1.79c4.73-0.58,7.75-1.83,9.52-3.92c1.59-1.88,2.23-4.78,1.69-7.55c-0.53-2.71-2.13-5.37-4.5-7.5
			c-0.4-0.36-0.82-0.71-1.24-1.05c-0.97-0.8-1.96-1.62-2.89-2.67c-1.95-2.23-2.84-4.8-2.5-7.24c0.68-4.84,5.57-6.9,7.41-7.68
			l1.61-0.67c2.75-1.14,5.35-2.21,7.52-3.8c2.53-1.86,4.1-4.37,4.19-6.71c0.09-2.23-1.57-4.55-3.34-4.68
			c-1.73-0.13-3.03-1.63-2.9-3.35c0.12-1.73,1.66-3.05,3.36-2.9c5.71,0.41,9.34,6.11,9.14,11.17c-0.16,4.3-2.62,8.5-6.74,11.53
			c-2.78,2.04-5.87,3.31-8.84,4.54l-1.56,0.65c-2.86,1.2-3.56,2.17-3.64,2.77c-0.08,0.57,0.32,1.45,1.01,2.24
			c0.64,0.73,1.41,1.34,2.16,1.97c0.49,0.4,0.98,0.8,1.45,1.23c3.37,3.03,5.66,6.92,6.46,10.95c0.92,4.67-0.22,9.46-3.05,12.81
			c-3.74,4.44-9.53,5.61-13.55,6.11C903.6,1866.92,901.26,1867.06,898.92,1867.06z" class="colorfff svgShape"></path></g><g opacity=".4" fill="#000000" class="color000 svgShape"><path fill="#ffffff" d="M1099.53,1798.2c-0.81,0-1.6-0.09-2.37-0.26c-4.19-0.95-7.88-4.13-10.1-8.74c-1.49-3.11-2.18-6.36-2.84-9.5
			l-0.36-1.67c-0.66-3.03-1.48-3.89-2.06-4.09c-0.54-0.17-1.48,0.04-2.38,0.58c-0.84,0.5-1.58,1.14-2.32,1.76
			c-0.49,0.41-0.98,0.82-1.48,1.2c-3.6,2.76-7.84,4.3-11.95,4.35c-4.83,0.1-9.27-1.95-12.04-5.34c-3.68-4.5-3.78-10.4-3.53-14.44
			c0.49-7.92,2.67-15.87,6.31-22.99c0.79-1.54,2.67-2.16,4.22-1.37c1.54,0.79,2.15,2.68,1.36,4.22c-3.25,6.36-5.2,13.46-5.64,20.52
			c-0.29,4.75,0.38,7.96,2.12,10.08c1.56,1.9,4.42,3.03,7.12,3.04c2.76-0.03,5.67-1.11,8.19-3.05c0.43-0.33,0.85-0.68,1.27-1.03
			c0.96-0.8,1.95-1.64,3.15-2.35c2.55-1.52,5.24-1.92,7.57-1.14c4.64,1.56,5.77,6.74,6.19,8.69l0.37,1.71
			c0.61,2.91,1.19,5.65,2.36,8.07c1.36,2.83,3.55,4.83,5.83,5.35c2.2,0.5,4.75-0.71,5.2-2.42c0.44-1.68,2.17-2.67,3.83-2.24
			c1.68,0.44,2.68,2.15,2.24,3.83C1108.58,1795.67,1103.93,1798.2,1099.53,1798.2z" class="colorfff svgShape"></path></g><g opacity=".4" fill="#000000" class="color000 svgShape"><path fill="#ffffff" d="M896.85,1710.94c-0.81,0-1.6-0.09-2.37-0.26c-4.2-0.95-7.88-4.13-10.1-8.74c-1.5-3.1-2.18-6.36-2.85-9.51
			l-0.36-1.66c-0.66-3.03-1.48-3.89-2.06-4.09c-0.53-0.18-1.48,0.05-2.38,0.58c-0.83,0.5-1.57,1.14-2.32,1.76
			c-0.49,0.41-0.98,0.82-1.48,1.2c-3.6,2.76-7.84,4.3-11.95,4.35c-4.85-0.06-9.26-1.95-12.03-5.34c-3.69-4.5-3.78-10.4-3.53-14.44
			c0.49-7.92,2.68-15.86,6.31-22.98c0.78-1.54,2.67-2.16,4.22-1.37c1.54,0.79,2.16,2.68,1.37,4.22c-3.25,6.36-5.2,13.46-5.64,20.52
			c-0.29,4.75,0.38,7.95,2.12,10.08c1.56,1.9,4.41,3.1,7.12,3.04c2.76-0.03,5.67-1.11,8.19-3.05c0.43-0.33,0.85-0.68,1.27-1.04
			c0.96-0.8,1.95-1.63,3.15-2.35c2.54-1.52,5.24-1.92,7.58-1.14c4.64,1.56,5.77,6.74,6.19,8.69l0.37,1.71
			c0.61,2.91,1.19,5.66,2.36,8.08c1.36,2.83,3.54,4.83,5.83,5.35c2.18,0.49,4.76-0.71,5.21-2.43c0.45-1.68,2.18-2.66,3.83-2.24
			c1.67,0.44,2.68,2.16,2.24,3.83C905.91,1708.41,901.24,1710.94,896.85,1710.94z" class="colorfff svgShape"></path></g><g opacity=".4" fill="#000000" class="color000 svgShape"><path fill="#ffffff" d="M1082.68,1580.82c-0.81,0-1.6-0.09-2.37-0.26c-4.2-0.94-7.88-4.13-10.1-8.74c-1.5-3.12-2.19-6.4-2.86-9.56
			l-0.34-1.61c-0.67-3.02-1.49-3.89-2.06-4.08c-0.54-0.18-1.47,0.04-2.38,0.58c-0.84,0.5-1.58,1.14-2.32,1.76
			c-0.49,0.41-0.98,0.82-1.49,1.21c-3.59,2.76-7.83,4.3-11.94,4.35c-4.81,0.06-9.26-1.94-12.04-5.34c-3.68-4.5-3.78-10.4-3.53-14.45
			c0.49-7.92,2.67-15.86,6.31-22.99c0.78-1.54,2.68-2.15,4.22-1.37c1.54,0.79,2.16,2.68,1.37,4.22c-3.25,6.36-5.2,13.46-5.64,20.52
			c-0.29,4.76,0.38,7.96,2.12,10.08c1.56,1.91,4.16,3.09,7.12,3.04c2.76-0.03,5.67-1.11,8.19-3.05c0.44-0.33,0.86-0.69,1.27-1.04
			c0.96-0.8,1.95-1.63,3.15-2.35c2.56-1.52,5.25-1.92,7.57-1.13c4.62,1.55,5.76,6.73,6.19,8.69l0.36,1.66
			c0.61,2.93,1.2,5.69,2.37,8.13c1.36,2.83,3.54,4.83,5.83,5.34c2.17,0.5,4.76-0.71,5.2-2.42c0.44-1.68,2.18-2.67,3.83-2.24
			c1.68,0.44,2.68,2.15,2.24,3.83C1091.73,1578.28,1087.07,1580.82,1082.68,1580.82z" class="colorfff svgShape"></path></g><g opacity=".4" fill="#000000" class="color000 svgShape"><path fill="#ffffff" d="M1198.75,1937.44c-0.81,0-1.6-0.09-2.37-0.26c-4.19-0.95-7.88-4.13-10.1-8.73c-1.49-3.11-2.18-6.36-2.84-9.51
			l-0.36-1.67c-0.53-2.43-1.23-3.8-2.06-4.08c-0.56-0.19-1.48,0.04-2.38,0.58c-0.84,0.5-1.58,1.14-2.32,1.76
			c-0.49,0.41-0.98,0.82-1.48,1.2c-3.6,2.76-7.84,4.3-11.95,4.35c-4.57,0.06-9.27-1.95-12.04-5.34c-3.68-4.5-3.78-10.4-3.53-14.44
			c0.49-7.92,2.67-15.86,6.31-22.99c0.79-1.54,2.68-2.16,4.22-1.37c1.54,0.79,2.16,2.68,1.37,4.22c-3.25,6.36-5.2,13.46-5.64,20.52
			c-0.29,4.75,0.38,7.96,2.12,10.08c1.56,1.91,4.25,3.09,7.12,3.04c2.76-0.03,5.67-1.11,8.19-3.05c0.43-0.33,0.85-0.68,1.27-1.03
			c0.96-0.8,1.95-1.64,3.15-2.35c2.55-1.52,5.24-1.92,7.58-1.13c4.62,1.55,5.76,6.73,6.19,8.69l0.37,1.72
			c0.61,2.91,1.19,5.66,2.36,8.07c1.37,2.83,3.55,4.83,5.83,5.34c2.2,0.49,4.76-0.71,5.2-2.42c0.44-1.68,2.17-2.67,3.83-2.24
			c1.68,0.44,2.68,2.15,2.24,3.83C1207.8,1934.91,1203.14,1937.44,1198.75,1937.44z" class="colorfff svgShape"></path></g><g opacity=".4" fill="#000000" class="color000 svgShape"><path fill="#ffffff" d="M1170.94,1536.17c-0.81,0-1.6-0.09-2.37-0.26c-4.2-0.95-7.88-4.13-10.1-8.74c-1.5-3.12-2.19-6.4-2.86-9.56
			l-0.34-1.61c-0.67-3.02-1.49-3.89-2.06-4.08c-0.54-0.17-1.48,0.04-2.38,0.58c-0.84,0.5-1.58,1.14-2.33,1.76
			c-0.49,0.41-0.98,0.82-1.49,1.21c-3.59,2.76-7.84,4.3-11.94,4.34c-4.92-0.03-9.26-1.94-12.03-5.34c-3.69-4.5-3.78-10.4-3.52-14.45
			c0.49-7.91,2.67-15.86,6.3-22.98c0.79-1.54,2.67-2.16,4.22-1.37c1.54,0.79,2.16,2.68,1.37,4.22c-3.25,6.37-5.2,13.46-5.63,20.52
			c-0.3,4.75,0.37,7.96,2.12,10.08c1.56,1.9,4.43,2.98,7.11,3.04c2.76-0.03,5.67-1.11,8.2-3.05c0.44-0.33,0.86-0.69,1.27-1.04
			c0.96-0.8,1.95-1.63,3.15-2.35c2.54-1.52,5.24-1.93,7.57-1.13c4.63,1.55,5.76,6.73,6.19,8.69l0.36,1.66
			c0.61,2.93,1.2,5.69,2.37,8.13c1.36,2.83,3.54,4.83,5.83,5.34c2.2,0.5,4.76-0.71,5.21-2.42c0.44-1.68,2.18-2.67,3.83-2.24
			c1.68,0.44,2.68,2.15,2.24,3.83C1180,1533.64,1175.33,1536.17,1170.94,1536.17z" class="colorfff svgShape"></path></g><g opacity=".4" fill="#000000" class="color000 svgShape"><path fill="#ffffff" d="M1393.4,1823.02c-1.92,0-3.79-0.36-5.51-1.09c-5.35-2.28-8.17-7.46-9.82-11.16
			c-3.24-7.24-4.99-15.29-5.07-23.29c-0.02-1.73,1.37-3.15,3.1-3.17c0.01,0,0.02,0,0.03,0c1.72,0,3.12,1.38,3.14,3.1
			c0.07,7.15,1.64,14.34,4.52,20.8c1.94,4.35,4.03,6.87,6.55,7.95c2.27,0.97,5.22,0.73,7.71-0.61c2.43-1.3,4.51-3.62,5.85-6.5
			c0.22-0.49,0.43-0.99,0.64-1.49c0.48-1.16,0.98-2.36,1.71-3.56c1.56-2.53,3.76-4.13,6.19-4.52c4.8-0.77,8.23,3.3,9.51,4.83
			l1.11,1.34c1.89,2.29,3.68,4.46,5.84,6.07c2.52,1.87,5.38,2.63,7.64,2.03c2.16-0.58,3.89-2.83,3.49-4.56
			c-0.39-1.69,0.67-3.37,2.35-3.76c1.7-0.39,3.37,0.67,3.76,2.35c1.29,5.58-3.09,10.72-7.98,12.03c-4.16,1.11-8.89-0.01-13-3.06
			c-2.77-2.06-4.89-4.63-6.94-7.11l-1.08-1.3c-1.99-2.38-3.11-2.77-3.71-2.66c-0.57,0.09-1.29,0.72-1.84,1.62
			c-0.51,0.84-0.88,1.75-1.25,2.66c-0.24,0.58-0.48,1.16-0.74,1.73c-1.91,4.12-4.95,7.45-8.57,9.39
			C1398.62,1822.36,1395.97,1823.02,1393.4,1823.02z" class="colorfff svgShape"></path></g></svg></g></svg>